<svg width="296" height="60" viewBox="0 0 296 60" fill="none" xmlns="http://www.w3.org/2000/svg">
<path d="M47.2478 31.4608C47.0183 31.9252 46.7163 32.345 46.3534 32.7132L34.349 45.0168C34.1406 45.3077 33.7824 45.4906 33.389 45.4906C32.9957 45.4906 32.6351 45.3077 32.4033 44.9864L20.42 32.7109C20.3615 32.6546 20.2983 32.5866 20.2397 32.5186C18.9847 31.109 18.7436 29.0733 19.6286 27.3377L32.2956 2.47247C32.5414 2.09018 32.9442 1.8744 33.389 1.8744C33.8339 1.8744 34.2343 2.08783 34.4684 2.44667L40.8171 14.911L47.1658 27.3752C47.8331 28.6816 47.8636 30.2107 47.2478 31.4608ZM33.773 53.0144L2.1454 20.8013L2.04472 20.6981C1.81058 20.5104 1.54132 20.4143 1.25098 20.4143C0.827189 20.4307 0.454906 20.616 0.225449 20.9209C0.0100404 21.207 -0.0531774 21.5776 0.0451614 21.9716L9.2492 53.7016C9.4693 54.4592 9.82519 55.1628 10.3145 55.7866C10.3731 55.8664 10.4386 55.9438 10.5019 56.0188C11.5953 57.2876 13.2436 57.9842 14.9529 57.9842C15.6155 57.9842 16.2875 57.881 16.9384 57.6605C21.6774 56.0892 26.6388 55.2073 31.6962 55.0455C32.1247 55.0127 32.5508 54.9869 32.9746 54.9658C33.3258 54.947 33.6513 54.7781 33.862 54.5037C34.0704 54.2364 34.15 53.8986 34.0868 53.5726C34.047 53.378 33.9416 53.1903 33.7754 53.0168L33.773 53.0144ZM66.2201 20.6136C65.8198 20.3392 65.3093 20.3556 64.7755 20.6746L64.6444 20.7544L37.449 48.502C36.9971 48.9617 36.9948 49.6841 37.4443 50.1437L42.1833 54.9986C42.7453 55.5755 43.4664 55.9696 44.2742 56.1408C46.4236 56.5934 48.5566 57.1891 50.6171 57.9091C51.0947 58.0757 51.5934 58.1578 52.0945 58.1578C52.7149 58.1578 53.3354 58.0311 53.9278 57.7778C54.9486 57.3603 55.8314 56.7013 56.4799 55.8687C56.9646 55.2472 57.3252 54.5436 57.5476 53.779L66.754 22.0349C66.7914 21.8871 66.8055 21.7394 66.7938 21.6127C66.7938 21.2093 66.5784 20.8341 66.2201 20.6089V20.6136Z" fill="url(#paint0_linear_101_155)"/>
<path fill-rule="evenodd" clip-rule="evenodd" d="M191.522 38.8779C193.119 41.5 195.312 43.5545 198.11 45.0391C200.908 46.5237 204.053 47.2649 207.562 47.2649C211.07 47.2649 214.222 46.5237 217.02 45.0391C219.811 43.5545 222.011 41.4977 223.608 38.8779C225.203 36.2535 225.998 33.2984 225.998 30.0149C225.998 26.7314 225.206 23.774 223.608 21.1542C222.011 18.5298 219.811 16.4776 217.02 14.993C214.222 13.5084 211.07 12.7673 207.562 12.7673C204.053 12.7673 200.908 13.5084 198.11 14.993C195.312 16.4776 193.119 18.5298 191.522 21.1542C189.927 23.7763 189.132 26.7291 189.132 30.0149C189.132 33.3007 189.925 36.2535 191.522 38.8779ZM215.339 34.9683C214.544 36.406 213.474 37.52 212.114 38.3104C210.754 39.0984 209.236 39.4924 207.562 39.4924C205.887 39.4924 204.37 39.0984 203.016 38.3104C201.656 37.52 200.58 36.406 199.792 34.9683C199.003 33.5329 198.609 31.8771 198.609 30.0149C198.609 28.1527 199.003 26.4993 199.792 25.0616C200.58 23.6262 201.656 22.5122 203.016 21.7218C204.37 20.9338 205.887 20.5374 207.562 20.5374C209.236 20.5374 210.754 20.9338 212.114 21.7218C213.474 22.5122 214.544 23.6262 215.339 25.0616C216.127 26.5016 216.521 28.148 216.521 30.0149C216.521 31.8818 216.127 33.5329 215.339 34.9683ZM168.935 37.7832H165.267C164.877 37.7832 164.561 38.0998 164.561 38.4892V45.8887C164.561 46.278 164.244 46.5946 163.855 46.5946H155.89C155.501 46.5946 155.184 46.278 155.184 45.8887V14.1329C155.184 13.7435 155.501 13.4269 155.89 13.4269H170.349C173.351 13.4269 175.952 13.9218 178.166 14.9186C180.38 15.913 182.087 17.3366 183.283 19.1847C184.484 21.0328 185.089 23.2046 185.089 25.7001C185.089 28.1955 184.524 30.1961 183.408 31.9785C182.371 33.6249 180.929 34.943 179.071 35.9304C178.82 36.0641 178.733 36.3807 178.895 36.6152L185.244 45.8629C185.46 46.1748 185.235 46.6017 184.855 46.6017H176.447C175.98 46.6017 175.541 46.3718 175.279 45.9849L170.105 38.4047C169.842 38.0178 169.404 37.7879 168.937 37.7879L168.935 37.7832ZM174.134 22.0953C173.156 21.2439 171.697 20.8171 169.772 20.8171H165.264C164.875 20.8171 164.558 21.1337 164.558 21.523V29.8232C164.558 30.2125 164.875 30.5291 165.264 30.5291H169.772C171.697 30.5291 173.154 30.1116 174.134 29.2743C175.112 28.4371 175.605 27.2456 175.605 25.6954C175.605 24.1451 175.112 22.9466 174.134 22.0929V22.0953ZM83.8448 20.8693H92.6187L92.6211 20.8716C93.0104 20.8716 93.327 21.1882 93.327 21.5776V45.894C93.327 46.2833 93.6436 46.5999 94.033 46.5999H102.005C102.394 46.5999 102.711 46.2833 102.711 45.894V21.5752C102.711 21.1859 103.027 20.8693 103.417 20.8693H112.144C112.533 20.8693 112.85 20.5527 112.85 20.1633V14.1382C112.85 13.7488 112.533 13.4322 112.144 13.4322H83.8448C83.4555 13.4322 83.1389 13.7488 83.1389 14.1382V20.1633C83.1389 20.5527 83.4555 20.8693 83.8448 20.8693ZM148.454 45.8963V14.1382C148.454 13.7488 148.138 13.4322 147.748 13.4322H139.776C139.387 13.4322 139.071 13.7488 139.071 14.1382V25.187C139.071 25.5764 138.754 25.893 138.365 25.893H126.985C126.596 25.893 126.279 25.5764 126.279 25.187V14.1382C126.279 13.7488 125.962 13.4322 125.573 13.4322H117.601C117.212 13.4322 116.895 13.7488 116.895 14.1382V45.8963C116.895 46.2857 117.212 46.6023 117.601 46.6023H125.573C125.962 46.6023 126.279 46.2857 126.279 45.8963V34.3714C126.279 33.982 126.596 33.6654 126.985 33.6654H138.365C138.754 33.6654 139.071 33.982 139.071 34.3714V45.8963C139.071 46.2857 139.387 46.6023 139.776 46.6023H147.748C148.138 46.6023 148.454 46.2857 148.454 45.8963ZM261.596 14.1382V45.8963C261.596 46.2857 261.279 46.6023 260.89 46.6023H254.206C253.995 46.6023 253.795 46.5085 253.662 46.3466L239.852 29.6807C239.641 29.4251 239.226 29.5752 239.226 29.9058V45.8963C239.226 46.2857 238.909 46.6023 238.52 46.6023H230.738C230.349 46.6023 230.032 46.2857 230.032 45.8963V14.1382C230.032 13.7488 230.349 13.4322 230.738 13.4322H237.423C237.634 13.4322 237.833 13.526 237.967 13.6879L251.776 30.3515C251.987 30.6071 252.402 30.457 252.402 30.1263V14.1382C252.402 13.7488 252.719 13.4322 253.108 13.4322H260.89C261.279 13.4322 261.596 13.7488 261.596 14.1382ZM295 45.891V40.0535V40.0441C295 39.6548 294.683 39.3382 294.294 39.3382H278.362C277.973 39.3382 277.656 39.0216 277.656 38.6322V33.9814C277.656 33.5921 277.973 33.2755 278.362 33.2755H291.686C292.075 33.2755 292.392 32.9589 292.392 32.5695V26.9689C292.392 26.5796 292.075 26.2629 291.686 26.2629H278.362C277.973 26.2629 277.656 25.9463 277.656 25.557V21.3776C277.656 20.9883 277.973 20.6717 278.362 20.6717H293.677C294.067 20.6717 294.383 20.355 294.383 19.9657V14.1329C294.383 13.7435 294.067 13.4269 293.677 13.4269H269.075C268.685 13.4269 268.369 13.7435 268.369 14.1329V45.891C268.369 46.2804 268.685 46.597 269.075 46.597H294.294C294.683 46.597 295 46.2804 295 45.891Z" fill="white"/>
<path fill-rule="evenodd" clip-rule="evenodd" d="M191.522 38.8779C193.119 41.5 195.312 43.5545 198.11 45.0391C200.908 46.5237 204.053 47.2649 207.562 47.2649C211.07 47.2649 214.222 46.5237 217.02 45.0391C219.811 43.5545 222.011 41.4977 223.608 38.8779C225.203 36.2535 225.998 33.2984 225.998 30.0149C225.998 26.7314 225.206 23.774 223.608 21.1542C222.011 18.5298 219.811 16.4776 217.02 14.993C214.222 13.5084 211.07 12.7673 207.562 12.7673C204.053 12.7673 200.908 13.5084 198.11 14.993C195.312 16.4776 193.119 18.5298 191.522 21.1542C189.927 23.7763 189.132 26.7291 189.132 30.0149C189.132 33.3007 189.925 36.2535 191.522 38.8779ZM215.339 34.9683C214.544 36.406 213.474 37.52 212.114 38.3104C210.754 39.0984 209.236 39.4924 207.562 39.4924C205.887 39.4924 204.37 39.0984 203.016 38.3104C201.656 37.52 200.58 36.406 199.792 34.9683C199.003 33.5329 198.609 31.8771 198.609 30.0149C198.609 28.1527 199.003 26.4993 199.792 25.0616C200.58 23.6262 201.656 22.5122 203.016 21.7218C204.37 20.9338 205.887 20.5374 207.562 20.5374C209.236 20.5374 210.754 20.9338 212.114 21.7218C213.474 22.5122 214.544 23.6262 215.339 25.0616C216.127 26.5016 216.521 28.148 216.521 30.0149C216.521 31.8818 216.127 33.5329 215.339 34.9683ZM168.935 37.7832H165.267C164.877 37.7832 164.561 38.0998 164.561 38.4892V45.8887C164.561 46.278 164.244 46.5946 163.855 46.5946H155.89C155.501 46.5946 155.184 46.278 155.184 45.8887V14.1329C155.184 13.7435 155.501 13.4269 155.89 13.4269H170.349C173.351 13.4269 175.952 13.9218 178.166 14.9186C180.38 15.913 182.087 17.3366 183.283 19.1847C184.484 21.0328 185.089 23.2046 185.089 25.7001C185.089 28.1955 184.524 30.1961 183.408 31.9785C182.371 33.6249 180.929 34.943 179.071 35.9304C178.82 36.0641 178.733 36.3807 178.895 36.6152L185.244 45.8629C185.46 46.1748 185.235 46.6017 184.855 46.6017H176.447C175.98 46.6017 175.541 46.3718 175.279 45.9849L170.105 38.4047C169.842 38.0178 169.404 37.7879 168.937 37.7879L168.935 37.7832ZM174.134 22.0953C173.156 21.2439 171.697 20.8171 169.772 20.8171H165.264C164.875 20.8171 164.558 21.1337 164.558 21.523V29.8232C164.558 30.2125 164.875 30.5291 165.264 30.5291H169.772C171.697 30.5291 173.154 30.1116 174.134 29.2743C175.112 28.4371 175.605 27.2456 175.605 25.6954C175.605 24.1451 175.112 22.9466 174.134 22.0929V22.0953ZM83.8448 20.8693H92.6187L92.6211 20.8716C93.0104 20.8716 93.327 21.1882 93.327 21.5776V45.894C93.327 46.2833 93.6436 46.5999 94.033 46.5999H102.005C102.394 46.5999 102.711 46.2833 102.711 45.894V21.5752C102.711 21.1859 103.027 20.8693 103.417 20.8693H112.144C112.533 20.8693 112.85 20.5527 112.85 20.1633V14.1382C112.85 13.7488 112.533 13.4322 112.144 13.4322H83.8448C83.4555 13.4322 83.1389 13.7488 83.1389 14.1382V20.1633C83.1389 20.5527 83.4555 20.8693 83.8448 20.8693ZM148.454 45.8963V14.1382C148.454 13.7488 148.138 13.4322 147.748 13.4322H139.776C139.387 13.4322 139.071 13.7488 139.071 14.1382V25.187C139.071 25.5764 138.754 25.893 138.365 25.893H126.985C126.596 25.893 126.279 25.5764 126.279 25.187V14.1382C126.279 13.7488 125.962 13.4322 125.573 13.4322H117.601C117.212 13.4322 116.895 13.7488 116.895 14.1382V45.8963C116.895 46.2857 117.212 46.6023 117.601 46.6023H125.573C125.962 46.6023 126.279 46.2857 126.279 45.8963V34.3714C126.279 33.982 126.596 33.6654 126.985 33.6654H138.365C138.754 33.6654 139.071 33.982 139.071 34.3714V45.8963C139.071 46.2857 139.387 46.6023 139.776 46.6023H147.748C148.138 46.6023 148.454 46.2857 148.454 45.8963ZM261.596 14.1382V45.8963C261.596 46.2857 261.279 46.6023 260.89 46.6023H254.206C253.995 46.6023 253.795 46.5085 253.662 46.3466L239.852 29.6807C239.641 29.4251 239.226 29.5752 239.226 29.9058V45.8963C239.226 46.2857 238.909 46.6023 238.52 46.6023H230.738C230.349 46.6023 230.032 46.2857 230.032 45.8963V14.1382C230.032 13.7488 230.349 13.4322 230.738 13.4322H237.423C237.634 13.4322 237.833 13.526 237.967 13.6879L251.776 30.3515C251.987 30.6071 252.402 30.457 252.402 30.1263V14.1382C252.402 13.7488 252.719 13.4322 253.108 13.4322H260.89C261.279 13.4322 261.596 13.7488 261.596 14.1382ZM295 45.891V40.0535V40.0441C295 39.6548 294.683 39.3382 294.294 39.3382H278.362C277.973 39.3382 277.656 39.0216 277.656 38.6322V33.9814C277.656 33.5921 277.973 33.2755 278.362 33.2755H291.686C292.075 33.2755 292.392 32.9589 292.392 32.5695V26.9689C292.392 26.5796 292.075 26.2629 291.686 26.2629H278.362C277.973 26.2629 277.656 25.9463 277.656 25.557V21.3776C277.656 20.9883 277.973 20.6717 278.362 20.6717H293.677C294.067 20.6717 294.383 20.355 294.383 19.9657V14.1329C294.383 13.7435 294.067 13.4269 293.677 13.4269H269.075C268.685 13.4269 268.369 13.7435 268.369 14.1329V45.891C268.369 46.2804 268.685 46.597 269.075 46.597H294.294C294.683 46.597 295 46.2804 295 45.891Z" fill="#0B0B2B"/>
<defs>
<linearGradient id="paint0_linear_101_155" x1="9.8121" y1="58.1578" x2="53.995" y2="13.6782" gradientUnits="userSpaceOnUse">
<stop stop-color="#4CA6FF"/>
<stop offset="0.276959" stop-color="#4D4DFF"/>
<stop offset="0.491704" stop-color="#990AFF"/>
<stop offset="0.642891" stop-color="#D21EB4"/>
<stop offset="1" stop-color="#FFC400"/>
</linearGradient>
</defs>
</svg>
